<svg width="40" height="40" viewBox="0 0 40 40" fill="none" xmlns="http://www.w3.org/2000/svg">
  <rect x="2" y="2" width="36" height="36" rx="12" fill="#30302F"/>
  <path d="M12 11.5H21.5C25.1 11.5 27.5 13.5 27.5 16.4C27.5 18.1 26.6 19.6 24.9 20.4C27.2 21.1 28.5 22.8 28.5 25.1C28.5 28.6 25.6 30.5 21.6 30.5H12V11.5ZM16.5 15.2V18.9H20.8C22.2 18.9 23 18.2 23 17.05C23 15.9 22.2 15.2 20.8 15.2H16.5ZM16.5 22.5V26.8H21.2C22.9 26.8 23.9 26 23.9 24.65C23.9 23.3 22.9 22.5 21.2 22.5H16.5Z" fill="white"/>
  <path d="M31 7L31.9 9.1L34 10L31.9 10.9L31 13L30.1 10.9L28 10L30.1 9.1L31 7Z" fill="#A8F0D4"/>
</svg>